<mxfile host="app.diagrams.net" modified="2021-01-07T22:51:38.689Z" agent="5.0 (Windows NT 10.0; Win64; x64) AppleWebKit/537.36 (KHTML, like Gecko) Chrome/87.0.4280.141 Safari/537.36" etag="fWK6xIa07Kw7UEDD1teM" version="14.1.8" type="github">
  <diagram id="kgpKYQtTHZ0yAKxKKP6v" name="Page-1">
    <mxGraphModel dx="2035" dy="635" grid="1" gridSize="10" guides="1" tooltips="1" connect="1" arrows="1" fold="1" page="1" pageScale="1" pageWidth="850" pageHeight="1100" background="#EBEBEB" math="0" shadow="0">
      <root>
        <mxCell id="0" />
        <mxCell id="1" parent="0" />
        <mxCell id="9k-kRRWtJ1Up5X6aEsw0-105" value="" style="rounded=0;whiteSpace=wrap;html=1;fontColor=#808080;align=left;" vertex="1" parent="1">
          <mxGeometry x="-10" y="10" width="550" height="590" as="geometry" />
        </mxCell>
        <mxCell id="9k-kRRWtJ1Up5X6aEsw0-78" style="edgeStyle=orthogonalEdgeStyle;rounded=0;orthogonalLoop=1;jettySize=auto;html=1;entryX=1;entryY=0.5;entryDx=0;entryDy=0;strokeColor=#0000FF;fontColor=#0000FF;" edge="1" parent="1" source="9k-kRRWtJ1Up5X6aEsw0-2" target="9k-kRRWtJ1Up5X6aEsw0-9">
          <mxGeometry relative="1" as="geometry" />
        </mxCell>
        <mxCell id="9k-kRRWtJ1Up5X6aEsw0-2" value="User" style="shape=umlActor;verticalLabelPosition=bottom;verticalAlign=top;html=1;outlineConnect=0;" vertex="1" parent="1">
          <mxGeometry x="190" y="70" width="30" height="60" as="geometry" />
        </mxCell>
        <mxCell id="9k-kRRWtJ1Up5X6aEsw0-8" value="Command" style="swimlane;childLayout=stackLayout;horizontal=1;startSize=30;horizontalStack=0;rounded=1;fontSize=14;fontStyle=0;strokeWidth=2;resizeParent=0;resizeLast=1;shadow=0;dashed=0;align=center;" vertex="1" parent="1">
          <mxGeometry x="40" y="70" width="110" height="60" as="geometry" />
        </mxCell>
        <mxCell id="9k-kRRWtJ1Up5X6aEsw0-9" value=".set_val(user input)" style="align=left;strokeColor=none;fillColor=none;spacingLeft=4;fontSize=12;verticalAlign=top;resizable=0;rotatable=0;part=1;fontColor=#0066CC;" vertex="1" parent="9k-kRRWtJ1Up5X6aEsw0-8">
          <mxGeometry y="30" width="110" height="30" as="geometry" />
        </mxCell>
        <mxCell id="9k-kRRWtJ1Up5X6aEsw0-10" value="TelnetConnection" style="swimlane;childLayout=stackLayout;horizontal=1;startSize=30;horizontalStack=0;rounded=1;fontSize=14;fontStyle=0;strokeWidth=2;resizeParent=0;resizeLast=1;shadow=0;dashed=0;align=center;" vertex="1" parent="1">
          <mxGeometry x="40" y="160" width="200" height="70" as="geometry" />
        </mxCell>
        <mxCell id="9k-kRRWtJ1Up5X6aEsw0-11" value=".async_send_command(command)&#xa;._response_handler()" style="align=left;strokeColor=none;fillColor=none;spacingLeft=4;fontSize=12;verticalAlign=top;resizable=0;rotatable=0;part=1;fontColor=#004C99;" vertex="1" parent="9k-kRRWtJ1Up5X6aEsw0-10">
          <mxGeometry y="30" width="200" height="40" as="geometry" />
        </mxCell>
        <mxCell id="9k-kRRWtJ1Up5X6aEsw0-12" value="PriorityQueue" style="swimlane;childLayout=stackLayout;horizontal=1;startSize=30;horizontalStack=0;rounded=1;fontSize=14;fontStyle=0;strokeWidth=2;resizeParent=0;resizeLast=1;shadow=0;dashed=0;align=center;" vertex="1" parent="1">
          <mxGeometry x="80" y="300" width="130" height="70" as="geometry" />
        </mxCell>
        <mxCell id="9k-kRRWtJ1Up5X6aEsw0-13" value=".push(command)&#xa;.popcommand()" style="align=left;strokeColor=none;fillColor=none;spacingLeft=4;fontSize=12;verticalAlign=top;resizable=0;rotatable=0;part=1;fontColor=#0066CC;" vertex="1" parent="9k-kRRWtJ1Up5X6aEsw0-12">
          <mxGeometry y="30" width="130" height="40" as="geometry" />
        </mxCell>
        <mxCell id="9k-kRRWtJ1Up5X6aEsw0-25" value="ExpectedResponseQueue" style="swimlane;childLayout=stackLayout;horizontal=1;startSize=30;horizontalStack=0;rounded=1;fontSize=14;fontStyle=0;strokeWidth=2;resizeParent=0;resizeLast=1;shadow=0;dashed=0;align=center;" vertex="1" parent="1">
          <mxGeometry x="300" y="340" width="210" height="70" as="geometry" />
        </mxCell>
        <mxCell id="9k-kRRWtJ1Up5X6aEsw0-26" value=".push(expected_response)&#xa;.popmatch(response)" style="align=left;strokeColor=none;fillColor=none;spacingLeft=4;fontSize=12;verticalAlign=top;resizable=0;rotatable=0;part=1;fontColor=#0066CC;" vertex="1" parent="9k-kRRWtJ1Up5X6aEsw0-25">
          <mxGeometry y="30" width="210" height="40" as="geometry" />
        </mxCell>
        <mxCell id="9k-kRRWtJ1Up5X6aEsw0-99" style="edgeStyle=orthogonalEdgeStyle;rounded=0;orthogonalLoop=1;jettySize=auto;html=1;exitX=0.75;exitY=0;exitDx=0;exitDy=0;entryX=0.5;entryY=1;entryDx=0;entryDy=0;fontColor=#808080;" edge="1" parent="1" source="9k-kRRWtJ1Up5X6aEsw0-27" target="9k-kRRWtJ1Up5X6aEsw0-83">
          <mxGeometry relative="1" as="geometry">
            <Array as="points">
              <mxPoint x="400" y="180" />
              <mxPoint x="260" y="180" />
            </Array>
          </mxGeometry>
        </mxCell>
        <mxCell id="9k-kRRWtJ1Up5X6aEsw0-27" value="ExpectedResponse" style="swimlane;childLayout=stackLayout;horizontal=1;startSize=30;horizontalStack=0;rounded=1;fontSize=14;fontStyle=0;strokeWidth=2;resizeParent=0;resizeLast=1;shadow=0;dashed=0;align=center;" vertex="1" parent="1">
          <mxGeometry x="300" y="220" width="160" height="80" as="geometry" />
        </mxCell>
        <mxCell id="9k-kRRWtJ1Up5X6aEsw0-29" style="edgeStyle=orthogonalEdgeStyle;rounded=0;orthogonalLoop=1;jettySize=auto;html=1;exitX=0.5;exitY=1;exitDx=0;exitDy=0;fontColor=#0066CC;" edge="1" parent="9k-kRRWtJ1Up5X6aEsw0-27" source="9k-kRRWtJ1Up5X6aEsw0-28" target="9k-kRRWtJ1Up5X6aEsw0-28">
          <mxGeometry relative="1" as="geometry" />
        </mxCell>
        <mxCell id="9k-kRRWtJ1Up5X6aEsw0-28" value="._command&#xa;.set(success)&#xa;.set(fail)" style="align=left;strokeColor=none;fillColor=none;spacingLeft=4;fontSize=12;verticalAlign=top;resizable=0;rotatable=0;part=1;fontColor=#0066CC;" vertex="1" parent="9k-kRRWtJ1Up5X6aEsw0-27">
          <mxGeometry y="30" width="160" height="50" as="geometry" />
        </mxCell>
        <mxCell id="9k-kRRWtJ1Up5X6aEsw0-112" style="edgeStyle=orthogonalEdgeStyle;rounded=0;orthogonalLoop=1;jettySize=auto;html=1;entryX=0;entryY=0.75;entryDx=0;entryDy=0;fontColor=#808080;exitX=0.004;exitY=0.367;exitDx=0;exitDy=0;exitPerimeter=0;strokeColor=#00CC00;" edge="1" parent="1" source="9k-kRRWtJ1Up5X6aEsw0-35" target="9k-kRRWtJ1Up5X6aEsw0-11">
          <mxGeometry relative="1" as="geometry">
            <Array as="points">
              <mxPoint x="10" y="541" />
              <mxPoint x="10" y="220" />
            </Array>
          </mxGeometry>
        </mxCell>
        <mxCell id="9k-kRRWtJ1Up5X6aEsw0-35" value="" style="strokeColor=#666666;html=1;labelPosition=right;align=center;spacingLeft=15;shadow=0;dashed=0;outlineConnect=0;shape=mxgraph.rack.general.switches_2;fontColor=#0066CC;" vertex="1" parent="1">
          <mxGeometry x="50" y="530" width="160" height="30" as="geometry" />
        </mxCell>
        <mxCell id="9k-kRRWtJ1Up5X6aEsw0-47" value="Expected response lifecycle" style="swimlane;fontStyle=0;childLayout=stackLayout;horizontal=1;startSize=26;horizontalStack=0;resizeParent=1;resizeParentMax=0;resizeLast=0;collapsible=1;marginBottom=0;align=center;fontSize=14;" vertex="1" parent="1">
          <mxGeometry x="290" y="450" width="220" height="124" as="geometry">
            <mxRectangle x="90" y="390" width="50" height="40" as="alternateBounds" />
          </mxGeometry>
        </mxCell>
        <mxCell id="9k-kRRWtJ1Up5X6aEsw0-48" value="expected_response.set_sent()" style="text;strokeColor=none;fillColor=none;spacingLeft=4;spacingRight=4;overflow=hidden;rotatable=0;points=[[0,0.5],[1,0.5]];portConstraint=eastwest;fontSize=12;" vertex="1" parent="9k-kRRWtJ1Up5X6aEsw0-47">
          <mxGeometry y="26" width="220" height="30" as="geometry" />
        </mxCell>
        <mxCell id="9k-kRRWtJ1Up5X6aEsw0-50" value="timeout: QoS retry resend command" style="text;strokeColor=none;fillColor=none;spacingLeft=4;spacingRight=4;overflow=hidden;rotatable=0;points=[[0,0.5],[1,0.5]];portConstraint=eastwest;fontSize=12;fontColor=#FF0000;fontStyle=2" vertex="1" parent="9k-kRRWtJ1Up5X6aEsw0-47">
          <mxGeometry y="56" width="220" height="34" as="geometry" />
        </mxCell>
        <mxCell id="9k-kRRWtJ1Up5X6aEsw0-49" value="timeout: QoS retries expended" style="text;strokeColor=none;fillColor=none;spacingLeft=4;spacingRight=4;overflow=hidden;rotatable=0;points=[[0,0.5],[1,0.5]];portConstraint=eastwest;fontSize=12;fontStyle=2;fontColor=#FF0000;" vertex="1" parent="9k-kRRWtJ1Up5X6aEsw0-47">
          <mxGeometry y="90" width="220" height="34" as="geometry" />
        </mxCell>
        <mxCell id="9k-kRRWtJ1Up5X6aEsw0-70" style="edgeStyle=orthogonalEdgeStyle;rounded=0;orthogonalLoop=1;jettySize=auto;html=1;exitX=0;exitY=0.75;exitDx=0;exitDy=0;strokeColor=#0000FF;fontColor=#0000FF;entryX=0;entryY=0.5;entryDx=0;entryDy=0;" edge="1" parent="1" source="9k-kRRWtJ1Up5X6aEsw0-13" target="9k-kRRWtJ1Up5X6aEsw0-48">
          <mxGeometry relative="1" as="geometry">
            <mxPoint x="125" y="450" as="targetPoint" />
          </mxGeometry>
        </mxCell>
        <mxCell id="9k-kRRWtJ1Up5X6aEsw0-72" style="edgeStyle=orthogonalEdgeStyle;rounded=0;orthogonalLoop=1;jettySize=auto;html=1;exitX=1;exitY=0.25;exitDx=0;exitDy=0;entryX=0.438;entryY=0;entryDx=0;entryDy=0;entryPerimeter=0;strokeColor=#0000FF;fontColor=#0000FF;" edge="1" parent="1" source="9k-kRRWtJ1Up5X6aEsw0-11" target="9k-kRRWtJ1Up5X6aEsw0-27">
          <mxGeometry relative="1" as="geometry" />
        </mxCell>
        <mxCell id="9k-kRRWtJ1Up5X6aEsw0-74" style="edgeStyle=orthogonalEdgeStyle;rounded=0;orthogonalLoop=1;jettySize=auto;html=1;exitX=0;exitY=0.5;exitDx=0;exitDy=0;fontColor=#0000FF;strokeColor=#FF0000;" edge="1" parent="1" source="9k-kRRWtJ1Up5X6aEsw0-49">
          <mxGeometry relative="1" as="geometry">
            <mxPoint x="300" y="295" as="targetPoint" />
            <Array as="points">
              <mxPoint x="270" y="557" />
              <mxPoint x="270" y="295" />
            </Array>
          </mxGeometry>
        </mxCell>
        <mxCell id="9k-kRRWtJ1Up5X6aEsw0-80" style="edgeStyle=orthogonalEdgeStyle;rounded=0;orthogonalLoop=1;jettySize=auto;html=1;exitX=0;exitY=0.5;exitDx=0;exitDy=0;entryX=-0.002;entryY=0.366;entryDx=0;entryDy=0;entryPerimeter=0;strokeColor=#0000FF;fontColor=#0000FF;" edge="1" parent="1" source="9k-kRRWtJ1Up5X6aEsw0-9" target="9k-kRRWtJ1Up5X6aEsw0-11">
          <mxGeometry relative="1" as="geometry" />
        </mxCell>
        <mxCell id="9k-kRRWtJ1Up5X6aEsw0-83" value="&lt;font color=&quot;#000000&quot;&gt;response&lt;/font&gt;" style="rounded=1;whiteSpace=wrap;html=1;fontColor=#0000FF;align=center;" vertex="1" parent="1">
          <mxGeometry x="230" y="80" width="60" height="20" as="geometry" />
        </mxCell>
        <mxCell id="9k-kRRWtJ1Up5X6aEsw0-90" style="edgeStyle=orthogonalEdgeStyle;rounded=0;orthogonalLoop=1;jettySize=auto;html=1;exitX=0.5;exitY=1;exitDx=0;exitDy=0;entryX=0.545;entryY=-0.013;entryDx=0;entryDy=0;entryPerimeter=0;fontColor=#0000FF;strokeColor=#0000FF;" edge="1" parent="1" source="9k-kRRWtJ1Up5X6aEsw0-26" target="9k-kRRWtJ1Up5X6aEsw0-47">
          <mxGeometry relative="1" as="geometry" />
        </mxCell>
        <mxCell id="9k-kRRWtJ1Up5X6aEsw0-94" style="edgeStyle=orthogonalEdgeStyle;rounded=0;orthogonalLoop=1;jettySize=auto;html=1;entryX=1.002;entryY=0.355;entryDx=0;entryDy=0;entryPerimeter=0;fontColor=#808080;strokeColor=#FF0000;dashed=1;" edge="1" parent="1" source="9k-kRRWtJ1Up5X6aEsw0-50" target="9k-kRRWtJ1Up5X6aEsw0-13">
          <mxGeometry relative="1" as="geometry" />
        </mxCell>
        <mxCell id="9k-kRRWtJ1Up5X6aEsw0-101" style="edgeStyle=orthogonalEdgeStyle;rounded=0;orthogonalLoop=1;jettySize=auto;html=1;exitX=0.5;exitY=1;exitDx=0;exitDy=0;entryX=0;entryY=0.25;entryDx=0;entryDy=0;strokeColor=#0000FF;fontColor=#808080;" edge="1" parent="1" source="9k-kRRWtJ1Up5X6aEsw0-28" target="9k-kRRWtJ1Up5X6aEsw0-26">
          <mxGeometry relative="1" as="geometry">
            <Array as="points">
              <mxPoint x="380" y="330" />
              <mxPoint x="280" y="330" />
              <mxPoint x="280" y="380" />
            </Array>
          </mxGeometry>
        </mxCell>
        <mxCell id="9k-kRRWtJ1Up5X6aEsw0-102" value="Default QoS Levels&lt;br&gt;0 - 0 retries, no awaitable response&lt;br&gt;1 - 1 retry&lt;br&gt;2 - 2 retries&lt;br&gt;3 - 2 retries&lt;br&gt;4 - reserved for QoS 3 retries" style="text;html=1;strokeColor=none;fillColor=none;align=left;verticalAlign=top;whiteSpace=wrap;rounded=0;fontColor=#808080;" vertex="1" parent="1">
          <mxGeometry x="309" y="80" width="230" height="120" as="geometry" />
        </mxCell>
        <mxCell id="9k-kRRWtJ1Up5X6aEsw0-103" value="&lt;font style=&quot;font-size: 21px&quot;&gt;pyavreceiver Telnet Quality of Service&lt;/font&gt;" style="text;html=1;strokeColor=none;fillColor=none;align=left;verticalAlign=middle;whiteSpace=wrap;rounded=0;fontColor=#808080;" vertex="1" parent="1">
          <mxGeometry x="10" width="360" height="50" as="geometry" />
        </mxCell>
        <mxCell id="9k-kRRWtJ1Up5X6aEsw0-104" value="v0.0.8&lt;br&gt;7th Jan 2021" style="text;html=1;strokeColor=none;fillColor=none;align=center;verticalAlign=middle;whiteSpace=wrap;rounded=0;fontColor=#808080;" vertex="1" parent="1">
          <mxGeometry x="380" y="15" width="96" height="20" as="geometry" />
        </mxCell>
        <mxCell id="9k-kRRWtJ1Up5X6aEsw0-106" style="edgeStyle=orthogonalEdgeStyle;rounded=0;orthogonalLoop=1;jettySize=auto;html=1;exitX=0;exitY=0.75;exitDx=0;exitDy=0;strokeColor=#0000FF;fontColor=#808080;" edge="1" parent="1" source="9k-kRRWtJ1Up5X6aEsw0-13" target="9k-kRRWtJ1Up5X6aEsw0-35">
          <mxGeometry relative="1" as="geometry">
            <Array as="points">
              <mxPoint x="40" y="360" />
              <mxPoint x="40" y="510" />
              <mxPoint x="130" y="510" />
            </Array>
          </mxGeometry>
        </mxCell>
        <mxCell id="9k-kRRWtJ1Up5X6aEsw0-113" style="edgeStyle=orthogonalEdgeStyle;rounded=0;orthogonalLoop=1;jettySize=auto;html=1;exitX=1;exitY=0.25;exitDx=0;exitDy=0;entryX=-0.001;entryY=0.361;entryDx=0;entryDy=0;entryPerimeter=0;fontColor=#808080;strokeColor=#0000FF;" edge="1" parent="1" source="9k-kRRWtJ1Up5X6aEsw0-11" target="9k-kRRWtJ1Up5X6aEsw0-13">
          <mxGeometry relative="1" as="geometry">
            <Array as="points">
              <mxPoint x="250" y="200" />
              <mxPoint x="250" y="280" />
              <mxPoint x="60" y="280" />
              <mxPoint x="60" y="344" />
            </Array>
          </mxGeometry>
        </mxCell>
        <mxCell id="9k-kRRWtJ1Up5X6aEsw0-114" style="edgeStyle=orthogonalEdgeStyle;rounded=0;orthogonalLoop=1;jettySize=auto;html=1;exitX=1;exitY=0.75;exitDx=0;exitDy=0;entryX=0;entryY=0.75;entryDx=0;entryDy=0;fontColor=#808080;strokeColor=#00CC00;" edge="1" parent="1" source="9k-kRRWtJ1Up5X6aEsw0-26" target="9k-kRRWtJ1Up5X6aEsw0-27">
          <mxGeometry relative="1" as="geometry">
            <Array as="points">
              <mxPoint x="520" y="400" />
              <mxPoint x="520" y="190" />
              <mxPoint x="280" y="190" />
              <mxPoint x="280" y="280" />
            </Array>
          </mxGeometry>
        </mxCell>
        <mxCell id="9k-kRRWtJ1Up5X6aEsw0-115" style="edgeStyle=orthogonalEdgeStyle;rounded=0;orthogonalLoop=1;jettySize=auto;html=1;exitX=1;exitY=0.75;exitDx=0;exitDy=0;entryX=0;entryY=0.75;entryDx=0;entryDy=0;strokeColor=#00CC00;fontColor=#808080;" edge="1" parent="1" source="9k-kRRWtJ1Up5X6aEsw0-11" target="9k-kRRWtJ1Up5X6aEsw0-26">
          <mxGeometry relative="1" as="geometry">
            <Array as="points">
              <mxPoint x="260" y="220" />
              <mxPoint x="260" y="400" />
            </Array>
          </mxGeometry>
        </mxCell>
      </root>
    </mxGraphModel>
  </diagram>
</mxfile>
